<svg id="visual" viewBox="0 0 900 600" width="900" height="600" xmlns="http://www.w3.org/2000/svg" xmlns:xlink="http://www.w3.org/1999/xlink" version="1.1"><rect x="0" y="0" width="900" height="600" fill="#1B253B"></rect><g transform="translate(473.5825990052495 187.68534073542037)"><path d="M55.1 -103.1C63.2 -90.8 56 -59.5 76.9 -39.1C97.8 -18.8 146.9 -9.4 184.4 21.6C221.9 52.7 247.8 105.3 241.9 151.8C236.1 198.3 198.6 238.6 152.9 287.2C107.3 335.9 53.7 393 13.3 370C-27.2 347.1 -54.3 244.1 -117 205.3C-179.6 166.4 -277.7 191.7 -288.8 168.2C-299.9 144.7 -224 72.3 -205.8 10.5C-187.6 -51.3 -227.2 -102.7 -217.3 -128.4C-207.5 -154.1 -148.2 -154.1 -103.8 -145.4C-59.3 -136.8 -29.7 -119.4 -3.1 -114C23.5 -108.7 47 -115.4 55.1 -103.1" fill="#03A9F4"></path></g></svg>