<svg width="26" height="25" viewBox="0 0 26 25" fill="none" xmlns="http://www.w3.org/2000/svg">
<path d="M0 24.9499V12.6187C0.038976 12.6248 0.0782365 12.6288 0.117628 12.6309H1.09313C1.22495 12.6309 1.21075 12.6309 1.2574 12.5195C1.33041 12.3423 1.40545 12.1662 1.48353 11.9819C1.65896 11.9819 1.83134 11.9819 2.00373 11.9819C2.03123 11.9788 2.05889 11.9862 2.08124 12.0025C2.10358 12.0188 2.11898 12.0429 2.1244 12.07C2.18321 12.2229 2.25318 12.3737 2.31098 12.5256C2.31855 12.56 2.3388 12.5904 2.36772 12.6106C2.39664 12.6309 2.43212 12.6395 2.46714 12.6349C3.16885 12.6298 3.87157 12.6349 4.5743 12.6349C4.61283 12.6349 4.65136 12.6298 4.70105 12.6268V12.1945C4.71299 12.1989 4.72386 12.2058 4.73295 12.2147C4.74204 12.2236 4.74914 12.2343 4.75378 12.2461C4.79536 12.3413 4.83997 12.4355 4.87344 12.5337C4.88098 12.5662 4.90051 12.5946 4.92813 12.6134C4.95576 12.6322 4.98945 12.6398 5.0225 12.6349C5.36017 12.6349 5.69683 12.6349 6.03653 12.6349C6.06942 12.6396 6.10286 12.6318 6.13027 12.613C6.15767 12.5943 6.17705 12.566 6.18458 12.5337C6.22007 12.4324 6.26266 12.3413 6.30424 12.2451C6.31235 12.2259 6.32452 12.2087 6.33466 12.1894H6.35899V12.6217C6.6125 12.6481 12.0933 12.6359 12.1937 12.6076V11.5729C12.3965 11.5506 12.4067 11.5628 12.4077 11.749C12.4077 12.0011 12.4077 12.2552 12.4077 12.5063C12.4077 12.5438 12.4077 12.5823 12.4128 12.6228H15.4265L15.4396 12.4C15.4579 12.4035 15.4758 12.4082 15.4934 12.4142C15.8391 12.5674 16.2146 12.6417 16.5926 12.6319C16.9333 12.6319 17.275 12.6319 17.6158 12.6319C17.8754 12.6319 17.8023 12.6703 17.9058 12.4385C17.9717 12.2887 18.0335 12.1348 18.0954 11.991H18.7038C18.7799 12.1732 18.8529 12.3504 18.9259 12.5286C18.9685 12.6298 18.9685 12.6298 19.0821 12.6298H21.2835C21.322 12.6298 21.3606 12.6248 21.4113 12.6217V12.0558C21.447 12.0784 21.4763 12.1098 21.4965 12.1469C21.5735 12.2735 21.6536 12.398 21.7236 12.5286C21.7392 12.5623 21.765 12.5902 21.7974 12.6084C21.8298 12.6266 21.8672 12.6341 21.9041 12.6298C22.474 12.6298 23.0439 12.6298 23.6138 12.6298C23.6523 12.6298 23.6918 12.6298 23.7375 12.6238V8.56298H21.8108V8.99731C21.7246 8.88811 21.6499 8.77039 21.5877 8.646C21.5749 8.61499 21.5521 8.58916 21.5229 8.57264C21.4936 8.55612 21.4597 8.54987 21.4265 8.55488C20.8404 8.55488 20.2543 8.55488 19.6692 8.55488C19.6337 8.55488 19.5982 8.55488 19.5475 8.56096V8.99731C19.4655 8.88546 19.3948 8.76574 19.3366 8.63993C19.3269 8.61214 19.3081 8.58843 19.2833 8.57263C19.2584 8.55683 19.229 8.54986 19.1997 8.55286C18.2597 8.55792 17.3207 8.55286 16.3817 8.56501C16.0777 8.5658 15.7777 8.63429 15.5035 8.76546C15.4833 8.77458 15.4599 8.77964 15.4326 8.78875L15.4224 8.56906H13.584L13.5688 8.79685C13.4281 8.68368 13.259 8.6112 13.08 8.58728C12.961 8.57109 12.8411 8.56298 12.721 8.56298C10.5131 8.56298 8.3056 8.56298 6.09839 8.56298C6.0629 8.56298 6.02842 8.56298 5.98887 8.56906L5.53256 9.61792L5.06509 8.56298H2.92954V8.98212L2.90419 8.98921L2.68617 8.56298H0.869025C0.851787 8.59943 0.834548 8.63486 0.818324 8.67131C0.571576 9.23624 0.32449 9.80083 0.0770663 10.3651C0.054812 10.4054 0.0290226 10.4437 0 10.4795V0H24.8985C24.9036 0.0556827 24.9127 0.110353 24.9127 0.166036C24.9127 4.58825 24.9127 9.00912 24.9127 13.4286C24.9127 13.4529 24.9127 13.4772 24.9127 13.5005C24.9127 13.5238 24.9056 13.5532 24.8996 13.5886H23.5813C23.2988 13.5798 23.0197 13.6522 22.7772 13.7972C22.7615 13.8026 22.7451 13.806 22.7285 13.8073V13.5957C22.7077 13.5921 22.6867 13.5898 22.6656 13.5886C22.0197 13.5886 21.3738 13.5886 20.7278 13.5886C20.5467 13.5891 20.3674 13.6256 20.2005 13.6959C20.1316 13.7243 20.0667 13.7637 19.9906 13.8032L19.9795 13.5957H16.5774L16.5652 13.8053C16.5516 13.803 16.5382 13.7989 16.5257 13.7931C16.2746 13.6553 15.9918 13.5855 15.7053 13.5906C14.9631 13.5835 14.2208 13.5906 13.4745 13.5906C13.44 13.5906 13.4055 13.5977 13.3731 13.6007L13.3619 13.8184C13.2341 13.7178 13.0813 13.6537 12.9198 13.6331C12.7737 13.6082 12.6259 13.5943 12.4777 13.5916C11.6512 13.5916 10.8248 13.5916 9.99734 13.5916C9.95245 13.5887 9.9075 13.5963 9.8661 13.6139C9.82471 13.6315 9.78804 13.6585 9.75904 13.6929C9.60694 13.868 9.44571 14.0351 9.27636 14.2173C9.2571 14.191 9.24493 14.1707 9.22972 14.1525C9.09282 13.9956 8.95289 13.8407 8.82411 13.6797C8.80181 13.6498 8.77248 13.6258 8.73869 13.6099C8.70491 13.594 8.66772 13.5867 8.63043 13.5886C7.45482 13.5886 6.27889 13.5886 5.10261 13.5886H4.97788V17.6524C5.00932 17.6524 5.03163 17.6595 5.05495 17.6595C6.23123 17.6595 7.40716 17.6595 8.58277 17.6595C8.60842 17.6609 8.63404 17.6563 8.65761 17.6461C8.68119 17.6359 8.70208 17.6204 8.71865 17.6008C8.82917 17.4793 8.94275 17.3608 9.0553 17.2414C9.12325 17.1695 9.1922 17.0986 9.26622 17.0217C9.43658 17.214 9.59883 17.3963 9.75803 17.5805C9.77868 17.607 9.80541 17.628 9.83595 17.6419C9.86648 17.6559 9.89993 17.6622 9.93346 17.6605C10.6159 17.6605 11.2973 17.6605 11.9798 17.6605C12.0193 17.6605 12.0579 17.6605 12.1106 17.6544V16.7028C12.5243 16.7119 12.9218 16.7129 13.3102 16.5641C13.3173 16.9417 13.3051 17.3001 13.3173 17.6585H15.1811C15.1963 17.3052 15.1811 16.9498 15.1922 16.6076C15.395 16.5843 15.4072 16.5934 15.4072 16.7787V17.536C15.4072 17.5745 15.4072 17.6139 15.4143 17.6636H17.3825C18.6142 17.6636 19.8463 17.6636 21.0787 17.6636C21.4172 17.6788 21.753 17.5965 22.0461 17.4267C22.0511 17.4267 22.0613 17.4267 22.0795 17.4267V17.6534C22.117 17.6534 22.1434 17.6605 22.1708 17.6605C22.7528 17.6605 23.3349 17.6605 23.917 17.6605C24.2425 17.6678 24.5663 17.6114 24.8701 17.4945C24.8809 17.4925 24.8919 17.4925 24.9026 17.4945C24.9249 17.6646 24.9168 24.8578 24.8925 24.9529H0.156161L0 24.9499Z" fill="#304166"/>
<path d="M20.813 9.92872V12.0548H19.3842L19.1145 11.417H17.6614L17.4028 12.0487C17.3916 12.0487 17.3845 12.0598 17.3774 12.0598C17.0053 12.0598 16.6311 12.0872 16.262 12.0376C15.9789 12.0172 15.7136 11.8923 15.5177 11.6873C15.3777 11.5311 15.2824 11.3401 15.2419 11.1345C15.1583 10.7622 15.1663 10.3752 15.2652 10.0067C15.4102 9.50047 15.7519 9.21193 16.2721 9.15928C16.6098 9.12486 16.9515 9.13195 17.2862 9.1198C17.3149 9.33263 17.3179 9.54812 17.2953 9.76167C17.2588 9.76167 17.2192 9.76167 17.1797 9.76167H16.6027C16.5423 9.76199 16.482 9.76638 16.4222 9.77483C16.3324 9.7841 16.2467 9.81714 16.174 9.87053C16.1012 9.92392 16.0441 9.99574 16.0085 10.0786C15.9719 10.1585 15.9459 10.2429 15.9314 10.3296C15.892 10.551 15.901 10.7782 15.9578 10.9958C16.0359 11.2722 16.1758 11.3896 16.4648 11.4119C16.5885 11.422 16.7132 11.4119 16.838 11.4119C16.9008 11.4119 16.9171 11.3744 16.9394 11.3279C17.0813 10.9904 17.2246 10.6556 17.3693 10.3236C17.5282 9.95302 17.6877 9.5818 17.8479 9.20991L17.8885 9.12081H18.9411L20.09 11.7986H20.1143C20.1143 11.6225 20.1143 11.4453 20.1143 11.2692V9.14207H21.1912L22.3888 11.1224C22.402 11.1224 22.407 11.1224 22.4101 11.1163C22.4115 11.1154 22.4126 11.1142 22.4135 11.1128C22.4144 11.1114 22.4149 11.1098 22.4151 11.1082L22.4212 9.16131C22.4226 9.15471 22.4246 9.14827 22.4273 9.14207H23.1371V12.0568H22.1403C21.7124 11.3481 21.2804 10.6394 20.8474 9.92163L20.813 9.92872ZM18.8681 10.7903C18.7068 10.4076 18.5588 10.037 18.3904 9.64929C18.2272 10.0441 18.0761 10.4116 17.9199 10.7903H18.8681Z" fill="#304166"/>
<path d="M5.84094 12.0609H5.22136L4.22457 9.81533C4.20867 9.94292 4.20392 10.0716 4.21037 10.2C4.21037 10.3246 4.21037 10.4491 4.21037 10.5726V12.0578H2.78059L2.51593 11.422H1.05674L0.788018 12.0619H0.0234375C0.442233 11.0839 0.859 10.114 1.27577 9.14106H2.32123L3.48129 11.8331H3.50055C3.50055 11.8331 3.50765 11.828 3.50765 11.826C3.50765 10.9371 3.51035 10.0478 3.51576 9.15828C3.51576 9.15828 3.51576 9.1522 3.5259 9.14208H4.65351L5.56614 11.1132C5.85412 10.438 6.12994 9.78901 6.40677 9.13803H7.55262L7.56378 9.14815C7.56378 9.14815 7.56986 9.15423 7.56986 9.15726C7.57364 9.17288 7.57602 9.18881 7.57696 9.20485C7.57696 10.1423 7.57696 11.0795 7.57696 12.0163C7.57531 12.0305 7.5719 12.0445 7.56682 12.0578H6.857C6.857 11.8776 6.857 11.6954 6.857 11.5131C6.857 11.3309 6.857 11.1365 6.857 10.9482C6.857 10.7599 6.857 10.5797 6.857 10.3954C6.857 10.2112 6.857 10.032 6.857 9.84975H6.82962C6.49837 10.5848 6.16881 11.3218 5.84094 12.0609ZM1.79698 9.67663H1.76859L1.31531 10.7903H2.25431L1.79698 9.67663Z" fill="#304166"/>
<path d="M13.6832 12.0588H12.9825C12.9825 11.9576 12.9825 11.8624 12.9825 11.7673C12.9825 11.6427 12.9825 11.5182 12.9744 11.3947C12.9531 11.1487 12.8385 11.0242 12.5941 11.013C12.2818 10.9988 11.9685 11.0069 11.6561 11.0059C11.649 11.0059 11.642 11.013 11.6217 11.0242V12.0609H10.9189V9.14411C10.9488 9.13879 10.9789 9.13541 11.0092 9.13398C11.5669 9.13398 12.1246 9.13398 12.6834 9.13398C12.8195 9.13364 12.9553 9.14652 13.089 9.17245C13.7136 9.29901 13.815 9.80825 13.6791 10.2264C13.6238 10.3958 13.5117 10.5409 13.3617 10.6374L13.2603 10.7022C13.2999 10.7255 13.3313 10.7447 13.3617 10.7619C13.4612 10.8118 13.5448 10.8883 13.6032 10.9828C13.6616 11.0774 13.6925 11.1864 13.6923 11.2975C13.7004 11.5415 13.6923 11.7855 13.6923 12.0295C13.6954 12.0386 13.6893 12.0457 13.6832 12.0588ZM11.6278 10.3853H12.5931C12.6251 10.3853 12.657 10.3822 12.6884 10.3762C12.7673 10.3658 12.8389 10.3251 12.888 10.2626C12.937 10.2002 12.9597 10.121 12.9511 10.0421C12.9511 9.96692 12.9214 9.89476 12.8684 9.8413C12.8154 9.78785 12.7435 9.75742 12.6681 9.75662C12.6523 9.75563 12.6364 9.75563 12.6205 9.75662L11.6815 9.74953C11.6631 9.75222 11.6451 9.75698 11.6278 9.7637V10.3853Z" fill="#304166"/>
<path d="M8.10151 9.14006H10.4206V9.74751C9.88012 9.74751 9.34066 9.74751 8.79815 9.74751V10.2659C9.32849 10.2659 9.85578 10.2659 10.3892 10.2659V10.8733C9.86187 10.8733 9.33457 10.8733 8.79916 10.8733V11.4453H10.4216V12.0528H8.11165C8.08731 11.9758 8.08022 9.30711 8.10151 9.14006Z" fill="#304166"/>
<path d="M14.8393 12.0629H14.1396V9.14108H14.8353C14.8576 9.22511 14.8637 11.9039 14.8393 12.0629Z" fill="#304166"/>
<path d="M5.59961 17.0844V14.1728C5.6422 14.1728 5.67668 14.1636 5.71217 14.1636C6.57815 14.1636 7.44515 14.1636 8.31214 14.1636C8.3476 14.163 8.38271 14.1707 8.41461 14.1862C8.4465 14.2017 8.47428 14.2245 8.49568 14.2527C8.74007 14.5281 8.98749 14.8015 9.2339 15.0758C9.24517 15.0927 9.25533 15.1103 9.26432 15.1285C9.29677 15.0961 9.31502 15.0789 9.33226 15.0596C9.5807 14.7923 9.83116 14.5271 10.0766 14.2578C10.1007 14.2274 10.1316 14.203 10.1668 14.1865C10.202 14.17 10.2405 14.1618 10.2794 14.1626C10.9578 14.1677 11.6351 14.1626 12.3135 14.1626C12.5263 14.1551 12.7391 14.1783 12.9453 14.2315C13.123 14.2727 13.2817 14.3726 13.3956 14.5149C13.5095 14.6573 13.572 14.8339 13.5729 15.0161C13.5799 15.1355 13.5741 15.2553 13.5557 15.3735C13.5364 15.5194 13.476 15.6569 13.3816 15.77C13.2872 15.883 13.1626 15.9671 13.0223 16.0123C12.8093 16.0847 12.5851 16.119 12.3602 16.1135C12.1198 16.1135 11.8785 16.1135 11.6382 16.1135H11.4901C11.483 16.4416 11.4901 16.7595 11.4901 17.0834C11.4455 17.0834 11.41 17.0834 11.3755 17.0834C10.9943 17.0834 10.613 17.0834 10.2317 17.0834C10.1985 17.0858 10.1651 17.0799 10.1347 17.0663C10.1043 17.0527 10.0777 17.0318 10.0573 17.0055C9.82914 16.7423 9.59489 16.4841 9.3637 16.2239C9.33632 16.1935 9.30691 16.1672 9.26838 16.1287C9.23897 16.1581 9.20652 16.1854 9.17813 16.2168C8.9307 16.4841 8.68227 16.7504 8.43586 17.0197C8.42034 17.0399 8.40018 17.0562 8.37707 17.0671C8.35396 17.0781 8.32857 17.0833 8.30302 17.0824H5.67668C5.65335 17.0905 5.63003 17.0865 5.59961 17.0844ZM6.30943 16.4679C6.32583 16.4713 6.34242 16.4737 6.35912 16.475H7.94709C7.97079 16.4756 7.99432 16.4708 8.0158 16.4608C8.03728 16.4507 8.05612 16.4358 8.0708 16.4173C8.28274 16.1875 8.4967 15.9607 8.70863 15.7319C8.74108 15.6974 8.77049 15.66 8.80395 15.6195C8.76846 15.579 8.73905 15.5415 8.70255 15.5061C8.50785 15.2884 8.31012 15.0728 8.11745 14.8531C8.09714 14.8266 8.0706 14.8055 8.04017 14.7918C8.00974 14.778 7.97637 14.7719 7.94304 14.7741C7.43602 14.7741 6.929 14.7741 6.4159 14.7741C6.38041 14.7741 6.34594 14.7741 6.30639 14.7792V15.2955H7.8102C7.83667 15.4973 7.83463 15.7018 7.80411 15.903H6.31146L6.30943 16.4679ZM9.72368 15.6337C10.0745 16.0224 10.4173 16.4082 10.7823 16.804V14.4987L9.72368 15.6337ZM11.4982 15.5051C11.5207 15.5095 11.5434 15.5126 11.5662 15.5142C11.842 15.5142 12.1188 15.5142 12.3957 15.5142C12.4438 15.5139 12.4917 15.5084 12.5386 15.498C12.6265 15.4817 12.7051 15.4332 12.7589 15.362C12.8128 15.2908 12.838 15.2021 12.8297 15.1133C12.8094 14.8946 12.6897 14.8096 12.4869 14.7822C12.471 14.7812 12.4551 14.7812 12.4393 14.7822H11.5621C11.5406 14.7833 11.5193 14.786 11.4982 14.7903V15.5051Z" fill="#304166"/>
<path d="M16.6975 17.0845H15.9877C15.9877 17.0055 15.9877 16.9316 15.9877 16.8567C15.9877 16.7089 15.9877 16.56 15.9704 16.4132C15.9431 16.1622 15.8305 16.0477 15.5719 16.0366C15.2606 16.0235 14.9473 16.0366 14.6218 16.0366V17.0855H13.9272C13.8998 17.0025 13.8937 14.3013 13.9272 14.1717C13.9637 14.1717 14.0032 14.1667 14.0418 14.1667L15.7656 14.1728C15.9344 14.1706 16.1023 14.1984 16.2615 14.2548C16.4247 14.31 16.5623 14.4226 16.6485 14.5716C16.7347 14.7207 16.7637 14.8959 16.73 15.0647C16.6833 15.3907 16.5738 15.5415 16.2676 15.7359L16.369 15.7936C16.4567 15.8349 16.532 15.8985 16.5875 15.9778C16.643 16.0572 16.6767 16.1497 16.6853 16.2462C16.6924 16.5195 16.6904 16.799 16.6975 17.0845ZM14.6218 15.419C14.6426 15.4228 14.6636 15.4255 14.6847 15.4271C14.9574 15.4271 15.2292 15.4271 15.5009 15.4271C15.5729 15.4271 15.6446 15.4193 15.7149 15.4039C15.7859 15.3877 15.8485 15.3461 15.891 15.287C15.9334 15.2278 15.9526 15.1553 15.9451 15.0829C15.9493 15.0141 15.9273 14.9462 15.8835 14.8929C15.8397 14.8395 15.7773 14.8047 15.7088 14.7954C15.6739 14.7876 15.6382 14.7839 15.6023 14.7843H14.6897C14.6665 14.786 14.6434 14.7897 14.6208 14.7954L14.6218 15.419Z" fill="#304166"/>
<path d="M17.8208 14.7741V15.2996H19.4047V15.8959C19.2313 15.904 19.0559 15.8959 18.8815 15.8959H17.836C17.8063 16.0866 17.8039 16.2806 17.8289 16.472H19.4423V17.0683C19.3561 17.0905 17.2976 17.0976 17.1201 17.0753V14.1717H19.4443V14.7741H17.8208Z" fill="#304166"/>
<path d="M19.8709 17.0855V16.4598H19.9996C20.3931 16.4598 20.7855 16.4598 21.179 16.4598C21.2511 16.4591 21.323 16.4523 21.3939 16.4395C21.4526 16.4299 21.5056 16.3991 21.543 16.353C21.5804 16.3069 21.5995 16.2487 21.5967 16.1895C21.5983 16.1324 21.5784 16.0769 21.5408 16.0339C21.5032 15.991 21.4507 15.9637 21.3939 15.9576C21.251 15.9404 21.1059 15.9384 20.962 15.9333C20.7654 15.9311 20.5698 15.9063 20.3789 15.8594C19.9976 15.7582 19.806 15.5061 19.7938 15.1092C19.7843 14.9814 19.7991 14.8529 19.8374 14.7306C19.9611 14.3924 20.2207 14.2315 20.5614 14.1798C20.6528 14.1672 20.745 14.1611 20.8372 14.1616C21.255 14.1616 21.6718 14.1616 22.0896 14.1616C22.121 14.1616 22.1524 14.1616 22.2001 14.1687C22.2001 14.2699 22.2001 14.3712 22.2001 14.4674C22.2001 14.5635 22.2001 14.6698 22.2001 14.7822C22.1524 14.7822 22.1109 14.7903 22.0683 14.7903H20.8859C20.8339 14.7898 20.782 14.7939 20.7308 14.8025C20.6722 14.8093 20.6182 14.8376 20.5794 14.882C20.5406 14.9263 20.5197 14.9835 20.5208 15.0424C20.5203 15.0994 20.5407 15.1545 20.578 15.1976C20.6153 15.2407 20.6671 15.2686 20.7237 15.2763C20.787 15.2874 20.851 15.2935 20.9153 15.2945C21.1506 15.3077 21.3878 15.3158 21.6251 15.333C21.7007 15.3402 21.7753 15.3562 21.8472 15.3806C21.974 15.4159 22.0871 15.4888 22.1714 15.5897C22.2558 15.6905 22.3075 15.8146 22.3197 15.9455C22.3458 16.104 22.3423 16.266 22.3096 16.4233C22.2868 16.5567 22.2273 16.6811 22.1377 16.7826C22.0482 16.8842 21.9322 16.9589 21.8026 16.9984C21.6629 17.0475 21.5166 17.0755 21.3686 17.0814C20.891 17.0925 20.4134 17.0814 19.9358 17.0814C19.9175 17.0905 19.9013 17.0875 19.8709 17.0855Z" fill="#304166"/>
<path d="M24.9112 14.7944H24.7622C24.3809 14.7944 23.9996 14.7944 23.6184 14.7944C23.5664 14.7935 23.5145 14.7972 23.4632 14.8055C23.4048 14.8109 23.3509 14.839 23.313 14.8836C23.275 14.9283 23.2562 14.986 23.2604 15.0444C23.2575 15.0734 23.2605 15.1027 23.2692 15.1305C23.2779 15.1583 23.2922 15.184 23.3111 15.2062C23.3301 15.2283 23.3533 15.2464 23.3795 15.2593C23.4056 15.2722 23.4341 15.2797 23.4632 15.2813C23.6346 15.3016 23.807 15.2996 23.9793 15.3117C24.1513 15.3187 24.3226 15.336 24.4924 15.3634C24.6508 15.3892 24.7942 15.4718 24.8958 15.5958C24.9974 15.7198 25.0501 15.8765 25.0441 16.0366C25.0441 16.1378 25.0492 16.229 25.0441 16.3241C25.041 16.4531 25.0033 16.5789 24.935 16.6884C24.8667 16.7979 24.7703 16.8871 24.6557 16.9468C24.4894 17.0372 24.3035 17.0855 24.1142 17.0875C23.6285 17.0946 23.1428 17.0875 22.657 17.0875C22.6433 17.0861 22.6297 17.0834 22.6165 17.0794V16.4598H22.7503C23.1397 16.4598 23.5291 16.4598 23.9185 16.4598C23.9904 16.4598 24.062 16.4527 24.1325 16.4385C24.1882 16.4274 24.2379 16.3964 24.2724 16.3513C24.307 16.3062 24.3239 16.2501 24.3201 16.1935C24.3246 16.1366 24.3067 16.0802 24.2701 16.0363C24.2335 15.9924 24.1812 15.9645 24.1244 15.9587C23.9814 15.9394 23.8364 15.9384 23.6924 15.9333C23.4959 15.9309 23.3003 15.9065 23.1093 15.8604C22.7361 15.7592 22.5465 15.5253 22.5171 15.1386C22.4989 14.9703 22.527 14.8002 22.5982 14.6466C22.7372 14.3611 22.9815 14.2274 23.2837 14.1798C23.3751 14.1672 23.4673 14.1611 23.5595 14.1616C23.9804 14.1616 24.4012 14.1616 24.823 14.1616C24.8463 14.1616 24.8707 14.1616 24.9102 14.1677C24.9173 14.3732 24.9123 14.5747 24.9112 14.7944Z" fill="#304166"/>
</svg>
