<svg width="88" height="15" viewBox="0 0 88 15" fill="none" xmlns="http://www.w3.org/2000/svg">
<path d="M47.4033 0C47.7622 0.106648 48.1252 0.200831 48.48 0.319945C49.9987 0.838803 51.3074 1.83727 52.2085 3.16469C53.1097 4.49211 53.5544 6.07646 53.4757 7.67867C53.3108 10.9404 50.9619 13.7909 47.758 14.4806C47.2633 14.5873 46.7298 14.536 46.2143 14.5318C45.5741 14.5318 44.9089 14.5956 44.295 14.4557C40.8306 13.6662 38.4332 10.3698 38.6965 6.84903C38.9487 3.46814 41.2671 0.804709 44.5929 0.0761774C44.6558 0.0568892 44.7166 0.03137 44.7745 0H47.4033Z" fill="#304166"/>
<path d="M0 0.343489C2.11884 0.378115 4.2543 0.0927967 6.34681 0.620497C9.68512 1.4626 11.7624 4.40443 11.4617 7.82964C11.3398 9.43199 10.661 10.9413 9.54289 12.096C8.42475 13.2507 6.9377 13.9782 5.33936 14.1523C4.97485 14.1991 4.60792 14.2246 4.24044 14.2285C2.82696 14.2285 1.41348 14.2285 0 14.2202V0.343489ZM2.74243 11.9072C3.32168 11.8809 3.88014 11.8587 4.43861 11.8269C7.59954 11.6496 8.78853 9.08864 8.66519 7.1385C8.44763 3.62604 5.84377 2.39196 2.74243 2.72576V11.9072Z" fill="#304166"/>
<path d="M35.1209 0C35.8331 0.204986 36.544 0.415512 37.2591 0.610803C37.6984 0.729917 37.8231 0.990304 37.8023 1.44183C37.7635 2.28255 37.7912 3.12742 37.7912 4.06094L37.3866 3.69667C36.0299 2.49307 34.4765 2.14543 32.7817 2.79501C31.0869 3.4446 30.1113 4.77285 29.8716 6.56648C29.6263 8.41551 30.1307 10.0291 31.6731 11.187C33.1475 12.295 35.6918 12.572 37.46 10.8463C37.5459 10.7618 37.6388 10.6842 37.794 10.5429V12.8158C37.794 13.7853 37.794 13.795 36.8808 14.1219C32.8621 15.554 28.1574 13.3767 27.1583 8.85872C26.2783 4.87534 28.9694 0.84072 33.009 0.144044C33.2321 0.105263 33.4524 0.0526317 33.6741 0.00554029L35.1209 0Z" fill="#304166"/>
<path d="M76.8809 0.321327H77.3409C78.7267 0.328252 80.1 0.314402 81.4788 0.350413C82.5292 0.379499 83.5311 0.627421 84.3889 1.27978C85.6237 2.21468 85.9535 3.52216 85.8052 4.97645C85.6223 6.777 84.6204 7.89612 82.8521 8.32964C82.7934 8.35005 82.7364 8.37506 82.6817 8.40443L87.0288 14.2105C86.8764 14.2216 86.7794 14.2341 86.6824 14.2341C85.7858 14.2341 84.8892 14.2341 83.9926 14.2341C83.8975 14.2416 83.8022 14.2214 83.7183 14.1759C83.6345 14.1305 83.5656 14.0616 83.5201 13.9778C82.3879 12.2839 81.2446 10.5956 80.1111 8.90166C79.9864 8.71745 79.8658 8.56648 79.5789 8.68421V14.2036H76.8809V0.321327ZM79.5886 6.71883C80.3702 6.74792 81.1255 6.76592 81.8447 6.46675C82.6637 6.12603 83.042 5.46953 83.017 4.45014C82.9976 3.60665 82.5597 3.01246 81.7491 2.71745C81.0451 2.46399 80.3245 2.53047 79.5845 2.53047L79.5886 6.71883Z" fill="#304166"/>
<path d="M70.0576 2.66898V5.75762H74.8357V8.11219H70.07V11.8753H75.0338V14.2161H67.3525V0.351803H75.0338V2.66898H70.0576Z" fill="#304166"/>
<path d="M25.6592 1.63574L24.2554 3.47092C24.0101 3.26178 23.7912 3.04433 23.5431 2.86843C22.6757 2.26039 21.75 2.19945 20.8118 2.67314C20.1605 3.00278 19.8806 3.66344 20.0676 4.2784C20.1263 4.4534 20.2217 4.61386 20.3474 4.74905C20.4731 4.88424 20.6262 4.99105 20.7966 5.06233C21.3328 5.31995 21.8899 5.53325 22.4331 5.77563C23.029 6.04294 23.6388 6.28533 24.2083 6.60665C25.7562 7.45707 26.3008 8.62466 26.1068 10.554C25.8213 13.3241 23.514 14.536 21.4534 14.5706C19.0463 14.615 17.4638 13.4169 16.5811 12.0249L18.1719 10.2659C18.5447 10.6814 18.8399 11.097 19.2265 11.4072C19.6049 11.7293 20.0601 11.9484 20.5481 12.0433C21.036 12.1382 21.5402 12.1056 22.0119 11.9488C22.3709 11.8379 22.6883 11.6218 22.9228 11.3283C23.1573 11.0349 23.2981 10.6778 23.327 10.3033C23.3824 9.47231 22.9999 8.88505 22.2585 8.55402C21.495 8.2133 20.7023 7.93906 19.9332 7.6122C19.5327 7.44103 19.1443 7.24298 18.7706 7.0194C17.5109 6.26593 17.0924 5.10388 17.2199 3.70915C17.4278 1.43491 19.4925 -0.0789403 21.9717 0.0928048C23.3394 0.178329 24.6384 0.721868 25.6592 1.63574Z" fill="#304166"/>
<path d="M59.3742 9.64682C59.9743 8.16621 60.5535 6.73823 61.13 5.30748C61.7578 3.75069 62.3897 2.19391 63.0036 0.631583C63.0293 0.528347 63.0928 0.438502 63.1816 0.379783C63.2703 0.321064 63.3779 0.297738 63.483 0.314408C64.3311 0.329643 65.1792 0.314408 66.073 0.314408C66.0204 0.462607 65.9885 0.56787 65.9455 0.668978C64.035 5.19345 62.1254 9.72069 60.2168 14.2507C60.1156 14.4903 59.9951 14.5776 59.7359 14.5582C59.3604 14.5305 58.8934 14.6731 58.6273 14.4972C58.3612 14.3213 58.2906 13.8504 58.1464 13.5042C56.3717 9.23546 54.598 4.96445 52.8251 0.691139C52.7821 0.587261 52.7461 0.481998 52.6865 0.321333H53.1023C53.8035 0.321333 54.506 0.342109 55.2058 0.313023C55.5467 0.297787 55.7006 0.404436 55.8267 0.728535C56.9436 3.57895 58.0813 6.42244 59.2135 9.26731C59.2509 9.36981 59.2994 9.4723 59.3742 9.64682Z" fill="#304166"/>
<path d="M15.4402 14.223H12.7754V0.343491H15.4402V14.223Z" fill="#304166"/>
</svg>
