<svg width="26" height="20" viewBox="0 0 26 20" fill="none" xmlns="http://www.w3.org/2000/svg">
<path d="M8.31183 0.00608826C8.58438 0.0458246 8.85693 0.0793278 9.12871 0.124518C10.1578 0.299352 11.1415 0.678731 12.0217 1.24025C12.0589 1.2677 12.0941 1.29791 12.1268 1.33063C10.152 3.04475 9.0742 5.1944 9.0742 7.82012C9.0742 10.4458 10.1457 12.5854 12.1408 14.3213C11.9485 14.4382 11.7694 14.555 11.5809 14.6602C10.9809 14.9882 10.3405 15.2363 9.67615 15.3981C8.73937 15.6323 7.76672 15.6867 6.80967 15.5586C6.22525 15.4806 5.65089 15.3401 5.09647 15.1394C4.0721 14.764 3.13968 14.174 2.36159 13.4089C1.64152 12.7242 1.07163 11.8972 0.688114 10.9803C0.482658 10.4997 0.317012 10.003 0.192845 9.49527C0.0129595 8.69509 -0.0633554 7.87855 0.0612405 7.05811C0.125096 6.63582 0.175713 6.20963 0.278505 5.79668C0.464885 5.06384 0.764964 4.36477 1.16781 3.72494C2.18333 2.07645 3.77509 0.864566 5.63379 0.324758C6.14998 0.181007 6.67798 0.0837456 7.21149 0.0341375C7.24295 0.0277702 7.27372 0.0183768 7.30338 0.00608826H8.31183Z" fill="#304166"/>
<path d="M25.2503 8.37813C25.2137 8.61732 25.1802 8.8573 25.1397 9.0965C24.9422 10.275 24.478 11.3928 23.7827 12.3644C23.0873 13.336 22.1792 14.1357 21.1277 14.7024C20.5577 15.009 19.9508 15.2413 19.3219 15.3935C18.6759 15.5562 18.0116 15.6348 17.3455 15.6273C16.7501 15.6155 16.158 15.5371 15.5801 15.3935C14.7586 15.1926 13.9754 14.8592 13.2611 14.4064C13.2174 14.3783 13.177 14.3464 13.1224 14.309C15.1059 12.5878 16.182 10.439 16.182 7.81325C16.182 5.18754 15.109 3.04879 13.1162 1.31441C13.3086 1.19676 13.4892 1.07444 13.68 0.969254C14.3419 0.605222 15.053 0.338856 15.7911 0.178424C16.1392 0.100509 16.4974 0.0771351 16.851 0.0272699C16.8827 0.0204519 16.914 0.0113381 16.9444 0H17.9568C18.061 0.0265631 18.1669 0.0463426 18.2737 0.0592148C18.8776 0.108361 19.472 0.239418 20.0406 0.448786C20.8891 0.739412 21.6778 1.18188 22.3682 1.75463C23.8727 3.00671 24.8088 4.59695 25.1428 6.53156C25.1849 6.77543 25.2168 7.02164 25.2534 7.26629L25.2503 8.37813Z" fill="#304166"/>
<path d="M9.62012 7.83273C9.66684 7.19772 9.71279 6.57986 9.8623 5.97057C10.2368 4.4084 11.0908 3.00277 12.3044 1.95097C12.6937 1.61049 12.5598 1.61438 12.9531 1.95097C13.7387 2.62761 14.3767 3.4588 14.8274 4.39281C15.1459 5.04417 15.3928 5.72436 15.4847 6.44819C15.5439 6.90944 15.6217 7.37303 15.6217 7.83273C15.6197 8.45018 15.5436 9.06516 15.3951 9.66449C15.0323 11.169 14.2699 12.4343 13.1664 13.5049C13.0348 13.6327 12.8861 13.7386 12.7521 13.868C12.6642 13.9513 12.5964 13.9459 12.5053 13.868C11.9443 13.4044 11.4473 12.8683 11.0273 12.2738C10.5026 11.5355 10.12 10.7058 9.8989 9.82733C9.77041 9.29907 9.72914 8.75056 9.65205 8.20983C9.63336 8.07815 9.62946 7.94804 9.62012 7.83273Z" fill="#304166"/>
<path d="M1.31445 19.5479C1.31445 18.8646 1.31445 18.2133 1.31445 17.5627C1.31887 17.5399 1.32897 17.5186 1.34381 17.5007C1.35865 17.4829 1.37774 17.4691 1.39933 17.4606C1.52428 17.4525 1.64955 17.4507 1.77468 17.4551L1.79648 17.6546C1.87759 17.5648 1.97835 17.4951 2.09088 17.4507C2.20341 17.4064 2.32466 17.3887 2.44516 17.3991C2.6998 17.4139 2.89526 17.5245 3.10085 17.7816C3.10993 17.7341 3.12704 17.6885 3.15146 17.6468C3.49566 17.2806 4.18094 17.3133 4.46595 17.7177C4.54962 17.8316 4.60004 17.9664 4.61157 18.1073C4.6287 18.5748 4.61858 19.0501 4.61858 19.5362H4.16848C4.16458 19.4809 4.1568 19.4186 4.15524 19.3563C4.14278 18.983 4.13266 18.6098 4.1202 18.2366C4.10929 17.9351 3.87879 17.84 3.69423 17.8471C3.45517 17.8548 3.23245 18.0029 3.227 18.2709C3.21765 18.6348 3.2161 18.9986 3.227 19.3617C3.23089 19.5105 3.18884 19.5604 3.03621 19.5549C2.68423 19.5425 2.72472 19.5892 2.72472 19.2378C2.72472 18.9176 2.72472 18.5974 2.7146 18.2779C2.717 18.222 2.70827 18.1661 2.68892 18.1136C2.66957 18.061 2.63998 18.0128 2.60188 17.9718C2.56378 17.9308 2.51792 17.8977 2.46695 17.8746C2.41599 17.8514 2.36094 17.8386 2.30499 17.8369C2.07605 17.8245 1.84243 17.9928 1.82685 18.2265C1.80271 18.5935 1.80739 18.9628 1.80271 19.3313C1.80271 19.5456 1.80271 19.5456 1.59168 19.5456L1.31445 19.5479Z" fill="#304166"/>
<path d="M23.5339 17.611C23.5339 17.3258 23.5393 17.0609 23.5339 16.796C23.53 16.6659 23.565 16.6098 23.7052 16.6129C24.1031 16.6223 24.0346 16.5872 24.0361 16.9417C24.0361 17.7505 24.0361 18.5592 24.04 19.3672C24.04 19.5121 23.9988 19.5682 23.8562 19.5487C23.8075 19.5448 23.7586 19.5448 23.7098 19.5487C23.6032 19.5526 23.4973 19.5565 23.5471 19.3516C23.4427 19.4413 23.3211 19.5087 23.1897 19.5498C23.0584 19.5908 22.9201 19.6047 22.7832 19.5905C22.6463 19.5762 22.5138 19.5343 22.3937 19.4671C22.2736 19.3999 22.1684 19.3089 22.0846 19.1997C21.932 18.9879 21.8527 18.732 21.8587 18.471C21.8648 18.21 21.9559 17.958 22.1181 17.7536C22.4553 17.3507 22.9319 17.2962 23.5339 17.611ZM22.9584 19.1381C23.3205 19.1381 23.5736 18.8849 23.5728 18.5101C23.5728 18.0707 23.3002 17.8463 22.9708 17.8455C22.6189 17.8455 22.3619 18.0754 22.3564 18.5C22.3517 18.8771 22.6041 19.1365 22.9584 19.1381Z" fill="#304166"/>
<path d="M6.66593 19.3742C6.46006 19.5346 6.20119 19.6112 5.94123 19.5887C5.68127 19.5661 5.43944 19.4461 5.26422 19.2526C4.92937 18.8677 4.90134 18.2086 5.21205 17.8104C5.57104 17.35 6.04373 17.2806 6.63244 17.5931C6.67372 17.5455 6.71032 17.4668 6.75237 17.4629C6.88232 17.4548 7.01276 17.4598 7.14173 17.4777C7.15419 17.4777 7.16821 17.544 7.16821 17.5798C7.16821 18.193 7.16821 18.8062 7.16821 19.4194C7.16821 19.5207 7.12849 19.5565 7.03271 19.5487C6.98365 19.5448 6.93459 19.5487 6.88631 19.5487C6.7695 19.5479 6.63556 19.5775 6.66593 19.3742ZM6.09902 19.1404C6.45645 19.1404 6.71499 18.8677 6.71343 18.4937C6.71343 18.1423 6.43776 17.8291 6.10758 17.8447C5.7774 17.8603 5.50407 18.045 5.48928 18.4937C5.47526 18.8506 5.73146 19.1568 6.09746 19.1381L6.09902 19.1404Z" fill="#304166"/>
<path d="M19.8328 19.5386H19.3982L19.3593 19.3485C19.1257 19.5908 18.8337 19.6266 18.5323 19.5775C18.295 19.5385 18.0812 19.4113 17.9334 19.2215C17.59 18.7976 17.622 18.1213 17.9848 17.7146C18.2636 17.4029 18.9022 17.2362 19.3546 17.6281L19.4006 17.4661H19.8359L19.8328 19.5386ZM18.7971 19.1381C19.1311 19.1584 19.3865 18.8849 19.4076 18.5008C19.4255 18.1533 19.121 17.8252 18.7893 17.84C18.4575 17.8549 18.1858 18.0972 18.1756 18.4992C18.1686 18.789 18.4108 19.1724 18.7971 19.1381Z" fill="#304166"/>
<path d="M13.7172 18.6792H12.2376C12.1979 18.867 12.3583 19.0773 12.5686 19.1295C12.6864 19.1632 12.8101 19.1708 12.9311 19.1518C13.0521 19.1329 13.1676 19.0878 13.2694 19.0197C13.3886 18.9418 13.4252 18.9838 13.4922 19.0781C13.6479 19.3118 13.6549 19.3165 13.4034 19.4513C13.014 19.6609 12.3669 19.6656 12.0227 19.3282C11.6964 19.0088 11.6333 18.6161 11.7245 18.193C11.8093 17.7886 12.0671 17.5105 12.4674 17.424C13.123 17.283 13.6502 17.6507 13.7133 18.341C13.7258 18.4431 13.7172 18.5459 13.7172 18.6792ZM12.2205 18.2935H13.0888C13.1262 18.2935 13.1667 18.2881 13.1986 18.2857C13.2 18.1689 13.1563 18.056 13.0767 17.9706C12.9971 17.8851 12.8876 17.8336 12.7711 17.8268C12.4674 17.8128 12.2439 17.9928 12.2205 18.2935Z" fill="#304166"/>
<path d="M8.61316 17.3655C8.81719 17.4263 9.05314 17.491 9.2852 17.5697C9.30536 17.5847 9.32137 17.6046 9.33172 17.6275C9.34208 17.6504 9.34643 17.6755 9.34438 17.7006C9.31435 17.7854 9.27011 17.8644 9.21356 17.9343C9.19331 17.9593 9.12556 17.9593 9.08429 17.9515C8.88493 17.9117 8.68714 17.865 8.48778 17.8229C8.45559 17.8168 8.42237 17.8189 8.39122 17.8291C8.28532 17.8689 8.16617 17.9016 8.1615 18.045C8.15683 18.1883 8.27286 18.1953 8.36163 18.2164C8.56566 18.2655 8.77435 18.2943 8.9776 18.3426C9.24393 18.408 9.40746 18.588 9.42459 18.8101C9.44873 19.1256 9.32959 19.3687 9.07027 19.4739C8.84838 19.5684 8.60773 19.6105 8.36695 19.597C8.12618 19.5835 7.89175 19.5147 7.6818 19.396C7.58758 19.3454 7.56577 19.2908 7.63197 19.2051C7.64888 19.1842 7.66302 19.1611 7.67402 19.1365C7.73709 18.9846 7.8064 18.9503 7.97071 19.0462C8.19564 19.1729 8.46129 19.2061 8.7105 19.1389C8.82108 19.1124 8.92854 19.0734 8.93244 18.9425C8.93633 18.8116 8.82964 18.782 8.72374 18.7594C8.50336 18.7127 8.27987 18.6745 8.06338 18.6106C7.94429 18.5812 7.83861 18.5124 7.76343 18.4154C7.68825 18.3184 7.64797 18.1989 7.6491 18.0761C7.64588 17.9456 7.68411 17.8175 7.75826 17.7101C7.83242 17.6027 7.9387 17.5217 8.06182 17.4785C8.2238 17.4279 8.39667 17.4092 8.61316 17.3655Z" fill="#304166"/>
<path d="M9.72949 17.452H10.1329V16.8614C10.1586 16.8427 10.1625 16.8373 10.1671 16.8365C10.5814 16.7648 10.6079 16.7859 10.6079 17.198C10.6079 17.4536 10.6079 17.4536 10.8618 17.4536C10.9809 17.4536 11.1008 17.4583 11.2192 17.4536C11.3196 17.4489 11.3555 17.4902 11.3492 17.5876C11.343 17.685 11.3492 17.7699 11.3492 17.8821H10.6157C10.6157 18.2273 10.5993 18.553 10.6204 18.8755C10.6359 19.1155 10.854 19.2074 11.1102 19.1093C11.1732 19.0843 11.2379 19.0625 11.3056 19.0384C11.35 19.1552 11.3952 19.2534 11.4224 19.3563C11.4247 19.3783 11.4216 19.4005 11.4133 19.421C11.405 19.4415 11.3918 19.4597 11.3749 19.4739C11.2414 19.5464 11.0938 19.5892 10.9423 19.5996C10.7907 19.6099 10.6387 19.5875 10.4965 19.5339C10.2582 19.4412 10.1484 19.23 10.1422 18.9792C10.1344 18.6223 10.1422 18.2655 10.1422 17.8884H9.73261L9.72949 17.452Z" fill="#304166"/>
<path d="M17.2703 18.9628C17.3072 19.0447 17.3518 19.123 17.4035 19.1965C17.514 19.3235 17.4525 19.389 17.3365 19.4537C16.8194 19.7427 15.8811 19.6484 15.6724 18.8693C15.4387 18.0068 15.9441 17.3835 16.7782 17.4006C16.995 17.4 17.2074 17.4617 17.3902 17.5783C17.4681 17.6281 17.4961 17.6834 17.4284 17.7629C17.4157 17.7805 17.4053 17.7996 17.3972 17.8198C17.2828 18.0239 17.2828 18.0239 17.0671 17.9312C16.7322 17.7878 16.4371 17.8408 16.2478 18.0785C16.1549 18.199 16.1045 18.347 16.1045 18.4992C16.1045 18.6514 16.1549 18.7994 16.2478 18.9199C16.4129 19.1381 16.7431 19.2082 17.0266 19.0836C17.1013 19.0462 17.1745 19.008 17.2703 18.9628Z" fill="#304166"/>
<path d="M20.8714 17.4536C20.8792 17.5214 20.8854 17.572 20.894 17.646C21.1502 17.3718 21.4391 17.3453 21.7646 17.4645C21.7405 17.5315 21.7233 17.5751 21.7078 17.6203C21.6229 17.8743 21.6229 17.8743 21.355 17.8439C21.1058 17.8151 20.8987 18.0294 20.894 18.334C20.8886 18.6753 20.8862 19.0173 20.894 19.3586C20.894 19.5004 20.866 19.5596 20.7079 19.5518C20.3637 19.5347 20.4112 19.5916 20.4096 19.2402C20.4096 18.6948 20.4096 18.1556 20.4096 17.6141C20.4096 17.4832 20.4525 17.4396 20.5778 17.4489C20.6721 17.4598 20.7686 17.4536 20.8714 17.4536Z" fill="#304166"/>
<path d="M14.6456 17.6414C14.7281 17.5479 14.8332 17.4773 14.9509 17.4363C15.0687 17.3954 15.1949 17.3855 15.3176 17.4076C15.4874 17.4287 15.5123 17.4598 15.4562 17.6281C15.4282 17.7146 15.3939 17.7988 15.3589 17.893C15.2547 17.8653 15.1474 17.8506 15.0396 17.8494C14.7826 17.8798 14.658 18.0348 14.6502 18.306C14.6502 18.6636 14.6432 19.022 14.6502 19.3796C14.6502 19.5183 14.6051 19.5557 14.4727 19.551C14.109 19.5378 14.1651 19.6017 14.1612 19.2394C14.1612 18.694 14.1612 18.1548 14.1612 17.6133C14.1612 17.4832 14.2017 17.4349 14.3278 17.4505C14.3766 17.4532 14.4255 17.4532 14.4742 17.4505C14.5755 17.4559 14.6946 17.4279 14.6456 17.6414Z" fill="#304166"/>
<path d="M24.7208 19.2293C24.8975 19.2238 24.9707 19.297 24.9832 19.4272C24.9858 19.4569 24.9819 19.4869 24.9717 19.5149C24.9615 19.543 24.9453 19.5685 24.9242 19.5897C24.9032 19.6108 24.8777 19.6271 24.8497 19.6374C24.8217 19.6477 24.7918 19.6517 24.762 19.6492C24.6234 19.6492 24.5565 19.5814 24.5557 19.4396C24.5549 19.2978 24.6164 19.23 24.7208 19.2293Z" fill="#304166"/>
</svg>
