<svg width="41" height="14" viewBox="0 0 41 14" fill="none" xmlns="http://www.w3.org/2000/svg">
<path d="M40.2165 12.8011C40.1738 12.8011 40.1311 12.8011 40.0884 12.8011H37.2138C37.0721 12.1688 36.9479 11.5346 36.8082 10.8994H32.6277L31.9699 12.7943H28.5742C28.5868 12.7565 28.5975 12.7217 28.6121 12.6878L29.591 10.3407C30.8412 7.34546 32.0915 4.3509 33.3417 1.35698C33.4246 1.14796 33.5334 0.950165 33.6658 0.768265C33.7876 0.594938 33.9498 0.453775 34.1384 0.356949C34.327 0.260123 34.5364 0.210539 34.7485 0.212474C35.6702 0.205696 36.5919 0.212474 37.5135 0.212474C37.5349 0.212474 37.5562 0.212474 37.5873 0.219252C37.6125 0.33254 37.6377 0.446797 37.662 0.560086L38.6186 5.15166C38.8573 6.2981 39.0962 7.44487 39.3356 8.59196C39.5943 9.8391 39.8549 11.0866 40.1175 12.3344C40.1457 12.466 40.168 12.5997 40.1942 12.7323C40.1994 12.7488 40.2069 12.7644 40.2165 12.7788V12.8011ZM36.2998 8.33149C36.294 8.29276 36.2901 8.26177 36.2843 8.23466C36.076 7.26638 35.8678 6.29552 35.6595 5.32208L35.3132 3.69924C35.306 3.67556 35.2976 3.65229 35.2879 3.62953C34.7058 5.19427 34.1402 6.7561 33.5765 8.32955L36.2998 8.33149Z" fill="#304166"/>
<path d="M22.8914 13.0131C22.8391 13.0063 22.7867 12.9957 22.7343 12.9928C21.6656 12.9507 20.6104 12.7406 19.6074 12.3702C19.5666 12.3547 19.5268 12.3392 19.488 12.3227C19.4742 12.3157 19.4609 12.3076 19.4482 12.2985C19.6423 11.3948 19.8363 10.4865 20.0304 9.57378C20.0516 9.57837 20.0724 9.58485 20.0924 9.59315C20.7827 9.95572 21.5292 10.1996 22.3006 10.3145C22.6853 10.3769 23.0755 10.3993 23.4648 10.3813C23.8408 10.3695 24.2108 10.2836 24.5534 10.1286C24.7527 10.038 24.9303 9.90595 25.0744 9.74129C25.2273 9.57326 25.3135 9.35534 25.3169 9.12838C25.3176 8.9553 25.2647 8.78624 25.1656 8.64424C25.0795 8.51228 24.9704 8.39684 24.8435 8.3034C24.6436 8.1601 24.4428 8.01292 24.2313 7.89285C23.8548 7.67402 23.4687 7.47165 23.0874 7.2596C22.685 7.0445 22.3033 6.79263 21.9474 6.50725C21.6357 6.2558 21.3698 5.95246 21.1616 5.61062C20.8878 5.1388 20.7592 4.59694 20.792 4.05266C20.8385 2.86264 21.3459 1.90889 22.2822 1.18171C22.8631 0.74244 23.5271 0.424939 24.2342 0.248292C24.7657 0.107159 25.3115 0.0262805 25.8612 0.00719042C26.9522 -0.036398 28.042 0.118466 29.0774 0.464218C29.1385 0.484552 29.1986 0.50779 29.2588 0.531029C29.2714 0.531029 29.284 0.543617 29.3083 0.556205C29.3034 0.589126 29.3025 0.627857 29.2937 0.663684C29.1191 1.4751 28.9435 2.28587 28.7669 3.096C28.7601 3.12698 28.7504 3.15797 28.7407 3.19283C28.7097 3.18121 28.6825 3.17346 28.6573 3.16281C28.0085 2.87698 27.3174 2.69842 26.6111 2.63413C26.1882 2.58595 25.7603 2.60194 25.3421 2.68158C25.0929 2.73038 24.8548 2.82458 24.6397 2.95947C24.4958 3.04855 24.3741 3.16906 24.2837 3.31193C24.2047 3.42811 24.163 3.56543 24.1638 3.7058C24.1647 3.84616 24.2082 3.98297 24.2885 4.09817C24.3552 4.20338 24.4384 4.29721 24.5349 4.37606C24.7094 4.51822 24.8939 4.64766 25.087 4.76338C25.4479 4.97349 25.8195 5.16521 26.1862 5.36564C26.6375 5.59747 27.064 5.87453 27.4591 6.19255C27.6313 6.33654 27.7934 6.49215 27.9442 6.6583C28.4123 7.16799 28.6818 7.82827 28.7038 8.51933C28.7475 9.282 28.5664 10.0407 28.1829 10.7018C27.8609 11.2388 27.4169 11.6925 26.8867 12.0264C26.3168 12.3899 25.6872 12.6505 25.0268 12.7962C24.5327 12.9117 24.0283 12.9782 23.5211 12.9947C23.4755 12.9983 23.4301 13.0048 23.3853 13.0141L22.8914 13.0131Z" fill="#304166"/>
<path d="M6.56139 12.7923C6.55169 12.7604 6.54102 12.7304 6.53326 12.7004L4.41145 4.53292C4.24846 3.91258 4.08514 3.289 3.9215 2.6622C3.90404 2.59733 3.88076 2.53342 3.86135 2.46855C3.75563 2.12318 3.51889 1.83271 3.20162 1.65907C2.95165 1.52301 2.69227 1.4049 2.42547 1.30565C1.70857 1.02134 0.968932 0.797842 0.214412 0.637534L0.0203741 0.593961C0.0131825 0.589705 0.0063665 0.584846 0 0.579437L0.0640327 0.197935H5.49709C5.72268 0.193194 5.94695 0.233352 6.15682 0.316065C6.38717 0.403572 6.59057 0.549708 6.74681 0.739955C6.90305 0.930201 7.0067 1.15794 7.04745 1.40054C7.19104 2.11222 7.32105 2.82681 7.45687 3.54043C7.60887 4.34152 7.76151 5.14229 7.9148 5.94273C8.07003 6.75415 8.22494 7.56557 8.37953 8.37699C8.40184 8.49512 8.42512 8.61325 8.44841 8.73138H8.4649C8.46791 8.72965 8.47055 8.72735 8.47266 8.7246C8.47857 8.71566 8.48376 8.70627 8.48819 8.69652C9.60714 5.86979 10.7258 3.04403 11.8441 0.219237C11.8441 0.219237 11.8441 0.213428 11.8557 0.204713H15.2591C13.4992 4.4064 11.7416 8.60227 9.98616 12.7923H6.56139Z" fill="#304166"/>
<path d="M16.6455 0.203747H19.8898C18.9992 4.40285 18.1095 8.59872 17.2208 12.7914H13.9668C14.8613 8.59485 15.7542 4.39898 16.6455 0.203747Z" fill="#304166"/>
</svg>
