<svg width="92" height="92" xmlns="http://www.w3.org/2000/svg">

 <g>
  <title>background</title>
  <rect fill="none" id="canvas_background" height="94" width="94" y="-1" x="-1"/>
 </g>
 <g>
  <title>Layer 1</title>
  <path id="svg_1" fill="#01A2E9" d="m35.62589,41.25299l0,-11.9377c0.0313,-2.3527 0.9798,-4.6002 2.6435,-6.264c1.6638,-1.6637 3.9113,-2.6122 6.264,-2.6435l11.9376,0l0,-17.95127l-17.9396,0l0,11.92207c-0.0292,2.3527 -0.9766,4.6008 -2.6399,6.2648c-1.6633,1.6641 -3.911,2.6124 -6.2636,2.6427l-11.9416,0l0,17.9669l17.9396,0z" clip-rule="evenodd" fill-rule="evenodd"/>
  <path id="svg_6" fill="#304166" d="m38.74169,55.66379l0,14.442c0,12.5842 6.0097,18.8549 20.1752,18.8549c2.6329,0 9.1567,-0.3895 14.4109,-0.9464l0,-16.5531c-6.1928,0.0468 -16.0662,2.52 -16.0662,-6.7147l0,-23.5326l16.0662,0l0,-17.9162c-9.6203,0 -19.1899,0.0273 -28.8218,0.0273c-1.529,0.0102 -2.9922,0.6235 -4.0715,1.7065c-1.0794,1.083 -1.6877,2.5483 -1.6928,4.0773l0,26.555z" clip-rule="evenodd" fill-rule="evenodd"/>
 </g>
</svg>